<svg id="Camada_1" data-name="Camada 1" xmlns="http://www.w3.org/2000/svg" viewBox="0 0 2000 642.2"><defs><style>.cls-1{fill:#41357c;}.cls-2{fill:#bebde5;}</style></defs><path class="cls-1" d="M273.86,252.84V393.92H216.23V260.21c0-43.8-21.67-65-58.55-65-41,0-68.7,24.89-68.7,74.22V393.92H31.35V51.82H89V176.3C107.89,156,136.93,145,171.05,145,230.07,145,273.86,178.61,273.86,252.84Z"/><path class="cls-1" d="M557.87,147.72v246.2H503V362.57c-18.44,22.59-47.49,34.57-79.3,34.57-63.16,0-106-34.57-106-108.8V147.72H375.3V280.5c0,44.72,21.2,65.93,57.63,65.93,40.11,0,67.31-24.9,67.31-74.23V147.72Z"/><path class="cls-1" d="M1017.54,252.84V393.92H959.91V260.21c0-43.8-20.29-65-55.32-65-37.81,0-64.09,24.89-64.09,73.76v125H782.87V260.21c0-43.8-20.29-65-55.32-65-38.27,0-64.09,24.89-64.09,73.76v125H605.83V147.72h54.86v31.35c18.44-22.13,47-34.12,80.69-34.12,36,0,65.93,13.37,83,41,19.83-25.36,53-41,92.22-41C976.05,145,1017.54,178.61,1017.54,252.84Z"/><path class="cls-1" d="M1306.62,147.72v246.2h-54.86V362.11c-19.37,23.51-48,35-81.61,35-71.92,0-124.49-49.79-124.49-126.32S1098.23,145,1170.15,145c31.35,0,59,10.61,78.83,32.74v-30Zm-56.71,123.1c0-47-31.35-77-73.31-77-41.49,0-72.84,30-72.84,77s31.35,77,72.84,77C1218.56,347.81,1249.91,317.85,1249.91,270.82Z"/><path class="cls-1" d="M1597.08,252.84V393.92h-57.63V260.21c0-43.8-21.67-65-58.55-65-41,0-68.7,24.89-68.7,74.22V393.92h-57.63V147.72h54.87v31.81c18.9-22.59,48.86-34.58,84.83-34.58C1553.28,145,1597.08,178.61,1597.08,252.84Z"/><path class="cls-1" d="M1885.7,147.72v246.2h-54.87V362.11c-19.36,23.51-47.95,35-81.6,35-71.92,0-124.49-49.79-124.49-126.32S1677.31,145,1749.23,145c31.35,0,59,10.61,78.83,32.74v-30ZM1829,270.82c0-47-31.36-77-73.31-77-41.49,0-72.84,30-72.84,77s31.35,77,72.84,77C1797.63,347.81,1829,317.85,1829,270.82Z"/><path class="cls-2" d="M1524.61,558.75a17.8,17.8,0,0,1-5.63-.84q-18-5.07-18-20.26,0-19.7,24.76-45.59t44.46-25.89a15.62,15.62,0,0,1,10.56,3.52,11,11,0,0,1,4.08,8.58q0,15.76-23.78,30.11t-38.69,14.35a12.28,12.28,0,0,1-3.94-.56,32.49,32.49,0,0,0-4.22,16q0,14.64,13.93,14.63T1564.29,534a179.87,179.87,0,0,0,29.26-29.27q2.54-3.37,4.36-3.37c1.22,0,1.83.56,1.83,1.69s-.75,2.72-2.25,4.78a173.2,173.2,0,0,1-36.58,35.46Q1539.52,558.76,1524.61,558.75Zm53.18-81q0-3.37-7.17-3.38t-20.41,11q-17.71,14.63-27.57,30.67a11.33,11.33,0,0,0,3.66.56q10.68,0,28.56-11.39t22.37-24.91A7,7,0,0,0,1577.79,477.71Z"/><path class="cls-2" d="M1676.28,471l3.94-.85a8.81,8.81,0,0,1,5.91,2.53c1.87,1.69,2.81,3,2.81,3.94s-5.82,10-17.44,27.16-17.45,29.12-17.45,35.88a5.3,5.3,0,0,0,.28,1.69q1.41,6.47,6.19,6.47,14.63,0,53.47-48.4a2.42,2.42,0,0,1,2-1.13c.74,0,1.12.71,1.12,2.11s-.84,3.24-2.53,5.49q-36,48.12-54.87,48.12a13.6,13.6,0,0,1-4.79-.84q-12.37-4.78-12.38-18.58a41.61,41.61,0,0,1,1.13-9.56l-17.45,16.88q-16.61,14.64-24.06,14.63a24.19,24.19,0,0,1-14.21-4.78,17.67,17.67,0,0,1-7.6-14.92q0-20.53,28.71-49.1t52.62-28.56q9.28,0,12.38,6.47c.56,1.5,1,2.77,1.4,3.8S1676.09,471,1676.28,471Zm-84.14,69.22q0,10.13,7,10.13,16.3,0,44.46-35.74l29.83-41.08c-1.51-2.63-3.94-3.94-7.32-3.94q-17.18,0-45.59,26.59T1592.14,540.18Z"/><path class="cls-2" d="M1709.48,541q0,8.43,9.29,8.44t23.92-9.85q14.63-9.86,28.42-26.73c2.25-3,4-4.51,5.34-4.51s2,.57,2,1.69-3.84,6-11.54,14.63q-28.14,31-47,31-9.29,0-15.76-4.36t-6.47-13.51q0-9.13,4.79-21.25,8.15-19.12,26.17-48.12Q1761.53,415,1775.33,415a10,10,0,0,1,5.77,2.11c2,1.41,3,2.95,3.23,4.64l-24.9,33.49Q1741,480,1734,490.8T1723.41,507q-3.53,5.34-5.21,8.3c-1.12,2-2.44,4.55-3.94,7.73Q1709.48,532.6,1709.48,541Z"/><path class="cls-2" d="M1840.33,464.48l40.52-.56c.56.38.85.66.85.85q0,2.52-35,7t-37.85,5.35q-5.34,4.78-19.7,28.56t-14.35,34.75q0,10.41,14.35,10.41,6.77,0,17.73-4.22a104.3,104.3,0,0,0,16.89-7.88q15.75-9.84,33.77-29c2.62-2.62,4.4-3.94,5.34-3.94.56,0,.85.56.85,1.69s-1.41,3.37-4.23,6.75a125.87,125.87,0,0,1-32.92,29q-21.94,13.5-41.93,13.5-8.71,0-14.21-3.8t-5.48-15.33q0-11.53,10.13-31.66t15.47-30a33.3,33.3,0,0,1-6.75.85q-8.16,0-8.16-6.48c0-3.18,2.25-5.44,6.75-6.75a16.51,16.51,0,0,0,2.53-.28h16.33q5.05-6.47,11.53-14.92,7.88-10.12,10.7-10.13a15.86,15.86,0,0,1,7,2.26c2.82,1.5,4.22,3.28,4.22,5.34s-4.5,8.16-13.51,18.29Q1828.51,464.49,1840.33,464.48Z"/><path class="cls-2" d="M1917.15,554q-16.61,0-16.6-19.42,0-11,7.74-24.34t19-31.37q-36,18-65.28,53.18-16.34,24.48-19.14,24.48-8.16,0-8.16-4.78,0-2.54,3.38-9,27.29-48.68,41.36-71.19,33.49-53.74,47.28-58.25a2.54,2.54,0,0,1,1.12-.28q3.66,0,5.07,5.91-.86,5.91-29.27,42.77-29.54,37.43-33.48,49,10.39-7.59,36.3-25.6,27.86-19.42,36.86-19.42t9,7a5.4,5.4,0,0,1-.14,1.55q-.14.42-19.55,26.59t-19.42,38.56q0,6.46,4.78,6.47,15.19-.55,45.59-36.58,2.54-2.53,3.8-2.54c.84,0,1.27.57,1.27,1.69q0,5.64-27.86,30.39Q1923.33,554,1917.15,554Z"/><path class="cls-2" d="M1546.48,362.72a128.64,128.64,0,0,1-6.75,12.38q-3.66,5.91-7.6,12.1-4.79,7.89-9.71,15.62t-9.7,15.9q-4.8,7.88-9.15,15.48T1495,450h31.23c1.31,0,3.1-.1,5.35-.29s3.84.29,4.78,1.41q1.7,2.25-.14,4.08a17.09,17.09,0,0,1-4.78,3.24,48.11,48.11,0,0,1-6,2.39,18.18,18.18,0,0,1-3.94,1,50.67,50.67,0,0,1-15.9,2q-8-.27-16.18-.28H1488q-3.09,5.91-5.77,11.82t-4.92,12.1q-3.37,8.17-6.33,16.6a124.91,124.91,0,0,0-4.64,16.89,59.26,59.26,0,0,0-1.55,8.86q-.42,4.37-.71,8.58c0,1.32,0,2.54.14,3.66s.24,2.35.43,3.66c.18,1.13.42,2.3.7,3.52s.52,2.39.7,3.52a3.18,3.18,0,0,1-.14,2.81,2.58,2.58,0,0,1-2,1.27,4.84,4.84,0,0,1-2.53-.43,3.43,3.43,0,0,1-1.83-2,23.33,23.33,0,0,1-2.39-6.61q-.71-3.51-1.27-7.17a70.13,70.13,0,0,1,0-17.73,141.09,141.09,0,0,1,3.38-17.73q2.8-10.69,6.47-21.11t8.16-20.82l-21.1-1.12q-7.6-.29-15.06-.43t-15-.7l-23.92,48.68q-8.73,17.46-17.59,35a251.1,251.1,0,0,1-20.4,33.62,78,78,0,0,1-6.75,8,13,13,0,0,1-9,4.08,15.58,15.58,0,0,1-7-1.68,28.54,28.54,0,0,1-6.33-4.37,52.58,52.58,0,0,1-5.49-5.77c-1.69-2.06-3.19-3.94-4.5-5.62a203.26,203.26,0,0,1-19.7-32.65A361.67,361.67,0,0,1,1287,504.83a155.12,155.12,0,0,1-5.21-18.15,43.27,43.27,0,0,1-.14-18.71c.93-3.76,2.53-6.52,4.78-8.31a23.61,23.61,0,0,1,9-4.08,101,101,0,0,1,18.71-3.37q9.7-.85,19.28-1.41,18.84-1.12,38.27-1.69h38l3.1-7q7.88-16.89,15.9-33.63t16.18-33.63l15.76-31.52c1.31-2.25,2.62-4.54,3.94-6.89a45.27,45.27,0,0,1,4.5-6.61,22,22,0,0,1,5.91-5.07,20.66,20.66,0,0,1,7.88-2.53h2.53a10.81,10.81,0,0,1,3.1.42,3.5,3.5,0,0,1,2,1.27c.37.56.18,1.41-.57,2.53a168.53,168.53,0,0,0-14.35,24.48q-6.19,12.94-12.66,25.61-7.61,16.32-15.34,32.36T1432,441.23a39,39,0,0,0-2,3.94l-1.69,3.94q12.93,0,25.75.28t26,.28q3.95-8.71,8.45-17.16t9.28-16.89q5.63-10.68,11.82-20.68t12.66-19.84q3.1-4.49,6.2-8.44a24.35,24.35,0,0,1,7.87-6.47,14.59,14.59,0,0,0,2.68-1.41,4.73,4.73,0,0,1,2.67-.84,3.58,3.58,0,0,1,4.78,4.78ZM1379.33,514.11q6.48-13.5,12.67-26.87t12.66-27.15q-19.41-.85-38.55-.85-22.52-.27-44.74.85-7,.56-14.78,1.4a32.1,32.1,0,0,0-13.93,4.79c.19,0,.19,0,0,.14l.28-.14a6.71,6.71,0,0,0-2.11,5.62q.15,3.66.43,6.2a79,79,0,0,0,4.22,16.32q2.54,8.16,5.77,15.9t7.17,15.61q3.94,7.61,8.16,15.06c2.82,5,5.81,9.9,9,14.77,1.5,2.44,3,4.74,4.64,6.9a56.44,56.44,0,0,0,5.49,6.33c.74.94,1.5,1.83,2.25,2.67a20.64,20.64,0,0,0,2.53,2.39,7,7,0,0,0,2.11,1.55,10.67,10.67,0,0,1,1.83,1v.28a.24.24,0,0,1,.28-.28,23,23,0,0,0,4.08-4.79,56.82,56.82,0,0,0,3.24-5.63,116.72,116.72,0,0,0,9.57-17.16q4.77-8.44,9.14-17.31T1379.33,514.11Z"/></svg>