<svg width="240" height="325" viewBox="0 0 240 325" fill="none" xmlns="http://www.w3.org/2000/svg">
<path d="M13.4554 225.13H0.233398V284.376H38.7124V272.595H13.4554V225.13Z" fill="#A48A7B"/>
<path d="M74.48 223.775C65.721 223.775 58.347 226.699 52.358 232.547C46.368 238.395 43.374 245.671 43.374 254.372C43.374 263.074 46.368 270.349 52.358 276.197C58.347 282.045 65.72 284.969 74.48 284.969C83.238 284.969 90.6111 282.045 96.6021 276.197C102.591 270.349 105.586 263.075 105.586 254.372C105.586 245.671 102.591 238.395 96.6021 232.547C90.6111 226.699 83.238 223.775 74.48 223.775ZM87.024 267.891C83.634 271.592 79.466 273.443 74.522 273.443C69.577 273.443 65.411 271.593 62.02 267.891C58.63 264.191 56.935 259.699 56.935 254.414C56.935 249.132 58.63 244.624 62.02 240.896C65.41 237.167 69.577 235.302 74.522 235.302C79.466 235.302 83.633 237.167 87.024 240.896C90.414 244.625 92.11 249.132 92.11 254.414C92.109 259.698 90.414 264.19 87.024 267.891Z" fill="#A48A7B"/>
<path d="M230.178 232.547C224.188 226.699 216.814 223.775 208.056 223.775C199.297 223.775 191.923 226.699 185.934 232.547C179.944 238.395 176.95 245.671 176.95 254.372C176.95 263.074 179.944 270.349 185.934 276.197C191.923 282.045 199.297 284.969 208.056 284.969C216.814 284.969 224.187 282.045 230.178 276.197C236.167 270.349 239.162 263.075 239.162 254.372C239.162 245.671 236.167 238.395 230.178 232.547ZM220.6 267.891C217.21 271.592 213.042 273.443 208.098 273.443C203.153 273.443 198.987 271.593 195.596 267.891C192.206 264.191 190.511 259.699 190.511 254.414C190.511 249.132 192.206 244.624 195.596 240.896C198.986 237.167 203.153 235.302 208.098 235.302C213.042 235.302 217.209 237.167 220.6 240.896C223.99 244.625 225.686 249.132 225.686 254.414C225.686 259.698 223.99 264.19 220.6 267.891Z" fill="#A48A7B"/>
<path d="M143.721 254.202V262.841H155.253V270.475C152.202 272.227 148.388 273.103 143.811 273.103C139.234 273.103 135.293 271.422 131.988 268.06C128.682 264.699 127.03 260.22 127.03 254.626C127.03 249.032 128.753 244.527 132.2 241.108C135.646 237.69 139.884 235.98 144.913 235.98C147.512 235.98 149.927 236.418 152.16 237.294C154.392 238.171 156.835 239.767 159.492 242.083L166.357 232.167C160.085 226.573 152.697 223.776 144.193 223.776C135.688 223.776 128.428 226.715 122.41 232.591C116.393 238.469 113.384 245.8 113.384 254.585C113.384 263.372 116.336 270.646 122.241 276.41C128.145 282.174 135.449 285.056 144.151 285.056C154.547 285.056 162.684 281.779 168.561 275.224V262.843V254.204H155.254H143.721V254.202Z" fill="#A48A7B"/>
<path d="M58.6089 316.356C56.4759 316.356 54.8209 315.768 53.6439 314.591C52.4679 313.415 51.8789 311.755 51.8789 309.61C51.8789 307.411 52.2859 305.382 53.0999 303.524C53.9129 301.666 55.0379 300.217 56.4729 299.178C57.9079 298.139 59.5209 297.619 61.3139 297.619C62.8199 297.619 64.2929 297.899 65.7339 298.46L64.9589 300.785C63.6399 300.224 62.4359 299.944 61.3469 299.944C60.1149 299.944 58.9909 300.364 57.9739 301.206C56.9569 302.047 56.1599 303.218 55.5819 304.719C55.0049 306.22 54.7159 307.85 54.7159 309.609C54.7159 311.017 55.0809 312.111 55.8129 312.891C56.5439 313.672 57.5529 314.062 58.8389 314.062C59.6309 314.062 60.3789 313.953 61.0819 313.732C61.7859 313.512 62.4779 313.253 63.1599 312.957V315.316C61.7969 316.009 60.2789 316.356 58.6089 316.356Z" fill="#CBBBA0"/>
<path d="M76.074 297.719C78.163 297.719 79.812 298.337 81.022 299.574C82.231 300.811 82.836 302.512 82.836 304.678C82.836 306.745 82.4399 308.697 81.6479 310.533C80.8559 312.369 79.784 313.788 78.432 314.788C77.08 315.788 75.551 316.288 73.847 316.288C71.736 316.288 70.081 315.667 68.883 314.425C67.684 313.182 67.085 311.484 67.085 309.328C67.085 307.239 67.486 305.274 68.289 303.432C69.092 301.59 70.175 300.177 71.538 299.193C72.901 298.209 74.414 297.719 76.074 297.719ZM79.967 304.299C79.967 303.035 79.623 302.009 78.936 301.223C78.248 300.437 77.317 300.044 76.14 300.044C74.942 300.044 73.867 300.451 72.916 301.265C71.965 302.079 71.228 303.208 70.706 304.654C70.184 306.1 69.923 307.708 69.923 309.478C69.923 310.918 70.272 312.032 70.97 312.818C71.668 313.604 72.671 313.997 73.98 313.997C75.124 313.997 76.151 313.596 77.064 312.793C77.977 311.99 78.689 310.85 79.2 309.371C79.711 307.892 79.967 306.202 79.967 304.299Z" fill="#CBBBA0"/>
<path d="M95.8986 316.026L98.3396 304.613C98.5376 303.579 98.6366 302.837 98.6366 302.386C98.6366 301.616 98.4666 301.017 98.1256 300.588C97.7846 300.159 97.2026 299.945 96.3776 299.945C95.4536 299.945 94.5547 300.275 93.6807 300.934C92.8067 301.593 92.0366 302.537 91.3716 303.763C90.7066 304.989 90.1926 306.465 89.8296 308.192L88.1636 316.026H85.3926L89.2516 297.95H91.5436L91.1807 301.298H91.3456C92.3026 299.99 93.2557 299.05 94.2067 298.478C95.1577 297.907 96.1386 297.621 97.1506 297.621C98.3936 297.621 99.3496 297.978 100.021 298.693C100.691 299.408 101.087 300.402 101.209 301.678H101.341C102.286 300.304 103.293 299.284 104.359 298.619C105.425 297.953 106.503 297.621 107.592 297.621C108.988 297.621 110.069 297.995 110.833 298.743C111.597 299.491 111.979 300.579 111.979 302.009C111.979 302.757 111.858 303.735 111.616 304.945L109.241 316.028H106.437L108.878 304.615C109.098 303.471 109.208 302.669 109.208 302.207C109.208 301.525 109.019 300.978 108.639 300.566C108.26 300.154 107.663 299.948 106.849 299.948C105.958 299.948 105.078 300.267 104.21 300.905C103.342 301.543 102.58 302.447 101.926 303.618C101.272 304.789 100.774 306.178 100.433 307.783L98.6676 316.03H95.8986V316.026Z" fill="#CBBBA0"/>
<path d="M122.865 316.356C121.798 316.356 120.863 316.081 120.061 315.531C119.258 314.981 118.637 314.211 118.197 313.222H118.032L117.966 313.848C117.933 314.123 117.875 314.508 117.793 315.003C117.71 315.498 117.081 318.543 115.905 324.14H113.167L118.709 297.949H121.001L120.573 301.396H120.704C122.673 298.9 124.718 297.652 126.84 297.652C128.346 297.652 129.533 298.188 130.403 299.26C131.271 300.332 131.706 301.836 131.706 303.771C131.706 306.102 131.327 308.241 130.568 310.187C129.809 312.133 128.759 313.648 127.418 314.73C126.075 315.814 124.558 316.356 122.865 316.356ZM125.933 299.945C124.877 299.945 123.802 300.467 122.708 301.512C121.614 302.556 120.745 303.87 120.103 305.453C119.46 307.036 119.138 308.659 119.138 310.319C119.138 311.528 119.443 312.455 120.054 313.098C120.664 313.742 121.547 314.063 122.701 314.063C123.789 314.063 124.804 313.618 125.744 312.727C126.683 311.836 127.439 310.569 128.012 308.926C128.583 307.282 128.869 305.536 128.869 303.689C128.868 301.193 127.89 299.945 125.933 299.945Z" fill="#CBBBA0"/>
<path d="M143.91 297.62C144.922 297.62 145.823 297.892 146.615 298.436C147.406 298.98 148.022 299.764 148.462 300.786H148.644L149.748 297.95H151.843L148 316.026H145.807L146.236 312.579H146.104C144.135 315.097 142.063 316.356 139.886 316.356C138.358 316.356 137.158 315.812 136.29 314.723C135.422 313.634 134.987 312.144 134.987 310.253C134.987 307.966 135.377 305.844 136.158 303.887C136.938 301.93 138.016 300.396 139.39 299.285C140.766 298.175 142.272 297.62 143.91 297.62ZM140.777 314.063C141.843 314.063 142.905 313.555 143.96 312.538C145.016 311.521 145.874 310.196 146.533 308.563C147.193 306.93 147.522 305.294 147.522 303.656C147.522 302.524 147.214 301.622 146.599 300.951C145.983 300.281 145.174 299.945 144.174 299.945C143.03 299.945 141.967 300.418 140.983 301.363C139.999 302.308 139.226 303.59 138.666 305.206C138.106 306.822 137.825 308.527 137.825 310.319C137.825 311.572 138.083 312.51 138.6 313.131C139.116 313.752 139.842 314.063 140.777 314.063Z" fill="#CBBBA0"/>
<path d="M164.477 316.026L166.918 304.613C167.138 303.469 167.248 302.678 167.248 302.238C167.248 301.545 167.053 300.99 166.662 300.572C166.271 300.155 165.647 299.946 164.79 299.946C163.811 299.946 162.857 300.276 161.929 300.935C160.999 301.595 160.181 302.535 159.471 303.755C158.762 304.976 158.226 306.455 157.864 308.192L156.198 316.026H153.427L157.286 297.95H159.578L159.216 301.298H159.381C160.436 299.957 161.456 299.008 162.44 298.453C163.424 297.898 164.444 297.62 165.5 297.62C166.896 297.62 167.999 298.002 168.808 298.766C169.616 299.53 170.02 300.599 170.02 301.974C170.02 302.843 169.893 303.832 169.64 304.943L167.282 316.026H164.477V316.026Z" fill="#CBBBA0"/>
<path d="M173.565 297.95H176.336L177.557 306.938C177.666 307.697 177.774 308.816 177.878 310.294C177.982 311.773 178.035 312.963 178.035 313.865H178.134C178.519 312.908 178.997 311.809 179.569 310.567C180.141 309.324 180.564 308.467 180.84 307.994L186.2 297.95H189.136L177.657 319.094C176.635 320.985 175.623 322.299 174.623 323.036C173.622 323.772 172.418 324.141 171.011 324.141C170.219 324.141 169.449 324.025 168.702 323.794V321.567C169.394 321.765 170.115 321.864 170.862 321.864C171.763 321.864 172.536 321.586 173.179 321.031C173.823 320.475 174.447 319.654 175.051 318.565L176.304 316.322L173.565 297.95Z" fill="#CBBBA0"/>
<path d="M42.1558 45.0289L1.67578 85.5089L119.65 203.483L160.13 163.003L42.1558 45.0289Z" fill="#7B6A58"/>
<path d="M1.69085 118.589L42.1709 159.069L160.145 41.0955L119.665 0.615449L1.69085 118.589Z" fill="#A48A7B"/>
<path d="M197.239 159.055L237.719 118.575L119.745 0.601358L79.2648 41.0814L197.239 159.055Z" fill="#CBBBA0"/>
<path d="M237.663 85.4943L197.183 45.0142L79.2086 162.988L119.689 203.468L237.663 85.4943Z" fill="#A48A7B"/>
</svg>
