<svg width="323" height="303" viewBox="0 0 323 303" fill="none" xmlns="http://www.w3.org/2000/svg">
<path d="M55.2923 203.293H42.0703V262.538H80.5493V250.757H55.2923V203.293Z" fill="#A48A7B"/>
<path d="M116.316 201.937C107.557 201.937 100.183 204.861 94.1939 210.709C88.2039 216.557 85.21 223.833 85.21 232.534C85.21 241.236 88.2039 248.511 94.1939 254.359C100.183 260.207 107.556 263.131 116.316 263.131C125.074 263.131 132.447 260.207 138.438 254.359C144.427 248.511 147.422 241.237 147.422 232.534C147.422 223.833 144.427 216.557 138.438 210.709C132.448 204.861 125.074 201.937 116.316 201.937ZM128.86 246.053C125.47 249.754 121.302 251.605 116.358 251.605C111.413 251.605 107.247 249.755 103.856 246.053C100.466 242.353 98.7709 237.861 98.7709 232.576C98.7709 227.294 100.466 222.786 103.856 219.058C107.246 215.329 111.413 213.464 116.358 213.464C121.302 213.464 125.469 215.329 128.86 219.058C132.25 222.787 133.946 227.294 133.946 232.576C133.946 237.861 132.251 242.353 128.86 246.053Z" fill="#A48A7B"/>
<path d="M272.014 210.71C266.024 204.862 258.65 201.938 249.892 201.938C241.133 201.938 233.759 204.862 227.77 210.71C221.78 216.558 218.786 223.834 218.786 232.535C218.786 241.237 221.78 248.512 227.77 254.36C233.759 260.208 241.132 263.132 249.892 263.132C258.65 263.132 266.023 260.208 272.014 254.36C278.003 248.512 280.998 241.238 280.998 232.535C280.998 223.834 278.003 216.558 272.014 210.71ZM262.437 246.053C259.047 249.754 254.879 251.605 249.935 251.605C244.99 251.605 240.824 249.755 237.433 246.053C234.043 242.353 232.348 237.861 232.348 232.576C232.348 227.294 234.043 222.786 237.433 219.058C240.823 215.329 244.99 213.464 249.935 213.464C254.879 213.464 259.046 215.329 262.437 219.058C265.827 222.787 267.523 227.294 267.523 232.576C267.522 237.861 265.827 242.353 262.437 246.053Z" fill="#A48A7B"/>
<path d="M185.558 232.365V241.004H197.09V248.638C194.039 250.39 190.225 251.266 185.648 251.266C181.071 251.266 177.13 249.585 173.825 246.223C170.519 242.862 168.867 238.383 168.867 232.789C168.867 227.195 170.59 222.69 174.037 219.271C177.483 215.853 181.721 214.143 186.751 214.143C189.349 214.143 191.765 214.581 193.998 215.457C196.23 216.334 198.673 217.93 201.329 220.246L208.194 210.33C201.922 204.736 194.534 201.939 186.03 201.939C177.525 201.939 170.265 204.878 164.247 210.754C158.23 216.632 155.221 223.963 155.221 232.748C155.221 241.535 158.173 248.809 164.078 254.573C169.982 260.337 177.285 263.219 185.988 263.219C196.384 263.219 204.521 259.942 210.398 253.387V241.006V232.367H197.091H185.558V232.365Z" fill="#A48A7B"/>
<path d="M100.444 294.519C98.3108 294.519 96.6559 293.931 95.4789 292.754C94.3029 291.578 93.7139 289.918 93.7139 287.773C93.7139 285.574 94.1209 283.545 94.9349 281.687C95.7479 279.829 96.8729 278.38 98.3079 277.341C99.7429 276.302 101.356 275.782 103.149 275.782C104.655 275.782 106.128 276.062 107.569 276.623L106.794 278.948C105.475 278.387 104.271 278.107 103.182 278.107C101.95 278.107 100.826 278.527 99.8089 279.369C98.7919 280.21 97.9949 281.381 97.4169 282.882C96.8399 284.383 96.5509 286.013 96.5509 287.772C96.5509 289.18 96.9159 290.274 97.6479 291.054C98.3789 291.835 99.3879 292.225 100.674 292.225C101.466 292.225 102.214 292.116 102.917 291.895C103.621 291.675 104.313 291.416 104.995 291.12V293.479C103.633 294.172 102.115 294.519 100.444 294.519Z" fill="#CBBBA0"/>
<path d="M117.91 275.881C119.999 275.881 121.648 276.499 122.858 277.736C124.067 278.973 124.672 280.674 124.672 282.84C124.672 284.907 124.276 286.859 123.484 288.695C122.692 290.531 121.62 291.95 120.268 292.95C118.916 293.95 117.387 294.45 115.683 294.45C113.572 294.45 111.917 293.829 110.719 292.587C109.52 291.344 108.921 289.646 108.921 287.49C108.921 285.401 109.322 283.436 110.125 281.594C110.928 279.752 112.011 278.339 113.374 277.355C114.737 276.371 116.25 275.881 117.91 275.881ZM121.803 282.462C121.803 281.198 121.459 280.172 120.772 279.386C120.084 278.6 119.153 278.207 117.976 278.207C116.778 278.207 115.703 278.614 114.752 279.428C113.801 280.242 113.064 281.371 112.542 282.817C112.02 284.263 111.759 285.871 111.759 287.641C111.759 289.081 112.108 290.195 112.806 290.981C113.504 291.767 114.507 292.16 115.816 292.16C116.96 292.16 117.987 291.759 118.9 290.956C119.813 290.153 120.525 289.013 121.036 287.534C121.547 286.055 121.803 284.364 121.803 282.462Z" fill="#CBBBA0"/>
<path d="M137.734 294.189L140.176 282.776C140.374 281.742 140.473 281 140.473 280.549C140.473 279.779 140.302 279.18 139.961 278.751C139.62 278.322 139.039 278.108 138.214 278.108C137.29 278.108 136.391 278.438 135.517 279.097C134.643 279.756 133.873 280.7 133.208 281.926C132.543 283.152 132.029 284.628 131.666 286.355L130 294.189H127.229L131.088 276.113H133.38L133.017 279.461H133.182C134.139 278.153 135.092 277.213 136.043 276.641C136.994 276.07 137.975 275.784 138.987 275.784C140.23 275.784 141.186 276.141 141.857 276.856C142.527 277.571 142.922 278.565 143.044 279.841H143.177C144.122 278.467 145.129 277.447 146.195 276.782C147.261 276.116 148.338 275.784 149.427 275.784C150.823 275.784 151.905 276.158 152.669 276.906C153.433 277.654 153.815 278.742 153.815 280.172C153.815 280.92 153.694 281.898 153.452 283.108L151.077 294.191H148.273L150.714 282.778C150.934 281.634 151.044 280.832 151.044 280.37C151.044 279.688 150.854 279.141 150.474 278.729C150.095 278.317 149.499 278.111 148.685 278.111C147.794 278.111 146.914 278.43 146.046 279.068C145.178 279.706 144.416 280.61 143.762 281.781C143.108 282.952 142.609 284.341 142.268 285.946L140.504 294.193H137.734V294.189Z" fill="#CBBBA0"/>
<path d="M164.701 294.519C163.634 294.519 162.699 294.244 161.897 293.694C161.094 293.144 160.473 292.374 160.033 291.385H159.868L159.802 292.011C159.769 292.286 159.711 292.671 159.629 293.166C159.546 293.661 158.917 296.706 157.741 302.303H155.003L160.545 276.112H162.837L162.409 279.559H162.54C164.509 277.063 166.554 275.815 168.676 275.815C170.182 275.815 171.369 276.351 172.239 277.423C173.107 278.495 173.542 279.999 173.542 281.934C173.542 284.265 173.163 286.404 172.404 288.35C171.645 290.296 170.595 291.811 169.254 292.893C167.911 293.977 166.393 294.519 164.701 294.519ZM167.768 278.108C166.712 278.108 165.637 278.63 164.543 279.675C163.449 280.719 162.58 282.033 161.938 283.616C161.295 285.199 160.973 286.822 160.973 288.482C160.973 289.691 161.278 290.618 161.889 291.261C162.499 291.905 163.382 292.226 164.536 292.226C165.624 292.226 166.639 291.781 167.579 290.89C168.518 289.999 169.274 288.732 169.847 287.089C170.418 285.445 170.704 283.699 170.704 281.852C170.704 279.356 169.725 278.108 167.768 278.108Z" fill="#CBBBA0"/>
<path d="M185.746 275.782C186.758 275.782 187.659 276.054 188.451 276.598C189.242 277.142 189.858 277.926 190.298 278.948H190.48L191.584 276.112H193.679L189.836 294.188H187.643L188.072 290.741H187.94C185.971 293.259 183.899 294.518 181.722 294.518C180.194 294.518 178.994 293.974 178.126 292.885C177.258 291.796 176.823 290.306 176.823 288.415C176.823 286.128 177.213 284.006 177.994 282.049C178.774 280.092 179.852 278.558 181.226 277.447C182.601 276.337 184.107 275.782 185.746 275.782ZM182.612 292.226C183.678 292.226 184.74 291.718 185.795 290.701C186.851 289.684 187.709 288.359 188.368 286.726C189.028 285.093 189.357 283.457 189.357 281.819C189.357 280.687 189.049 279.785 188.434 279.114C187.818 278.444 187.009 278.108 186.009 278.108C184.865 278.108 183.802 278.581 182.818 279.526C181.834 280.471 181.061 281.753 180.501 283.369C179.941 284.985 179.66 286.69 179.66 288.482C179.66 289.735 179.918 290.673 180.435 291.294C180.952 291.915 181.678 292.226 182.612 292.226Z" fill="#CBBBA0"/>
<path d="M206.312 294.189L208.753 282.776C208.973 281.632 209.083 280.841 209.083 280.401C209.083 279.708 208.888 279.153 208.497 278.735C208.106 278.318 207.482 278.109 206.625 278.109C205.646 278.109 204.692 278.439 203.764 279.098C202.834 279.758 202.016 280.698 201.306 281.918C200.597 283.139 200.061 284.618 199.699 286.355L198.033 294.189H195.262L199.121 276.113H201.413L201.051 279.461H201.216C202.271 278.12 203.291 277.171 204.275 276.616C205.259 276.061 206.279 275.783 207.335 275.783C208.731 275.783 209.834 276.165 210.643 276.929C211.451 277.693 211.855 278.762 211.855 280.137C211.855 281.006 211.728 281.995 211.475 283.106L209.117 294.189H206.312Z" fill="#CBBBA0"/>
<path d="M215.4 276.112H218.171L219.392 285.1C219.501 285.859 219.609 286.978 219.713 288.456C219.817 289.935 219.87 291.125 219.87 292.027H219.969C220.354 291.07 220.832 289.971 221.404 288.729C221.976 287.486 222.399 286.629 222.675 286.156L228.035 276.112H230.971L219.492 297.256C218.47 299.147 217.458 300.461 216.458 301.198C215.457 301.934 214.253 302.303 212.846 302.303C212.054 302.303 211.284 302.187 210.537 301.956V299.729C211.229 299.927 211.95 300.026 212.697 300.026C213.598 300.026 214.371 299.748 215.014 299.193C215.658 298.637 216.282 297.816 216.886 296.727L218.139 294.484L215.4 276.112Z" fill="#CBBBA0"/>
<path d="M39.198 0.235108L0.542969 38.8901L128.416 166.764L167.071 128.108L39.198 0.235108Z" fill="#CBBBA0"/>
<path d="M116.92 0.235596L78.2646 38.8906L206.138 166.764L244.793 128.109L116.92 0.235596Z" fill="#A48A7B"/>
<path d="M194.641 0.236041L155.986 38.8911L283.86 166.764L322.515 128.109L194.641 0.236041Z" fill="#634E42"/>
</svg>
