<svg width="240" height="320" viewBox="0 0 240 320" fill="none" xmlns="http://www.w3.org/2000/svg">
<path d="M96.2627 0.860544L71.6465 25.4768L120.879 74.7094L145.495 50.0931L96.2627 0.860544Z" fill="#A48A7B"/>
<path d="M170.11 74.7097L145.494 99.3259L194.727 148.558L219.343 123.942L170.11 74.7097Z" fill="#CBBBA0"/>
<path d="M45.8575 51.2648L21.2412 75.8811L70.4738 125.114L95.09 100.497L45.8575 51.2648Z" fill="#A48A7B"/>
<path d="M95.0928 100.494L70.4766 75.8778L21.244 125.11L45.8603 149.727L95.0928 100.494Z" fill="#A48A7B"/>
<path d="M170.113 25.472L145.497 0.855713L96.2645 50.0883L120.881 74.7045L170.113 25.472Z" fill="#A48A7B"/>
<path d="M219.346 74.7044L194.729 50.0881L145.497 99.3207L170.113 123.937L219.346 74.7044Z" fill="#CBBBA0"/>
<path d="M143.289 150.763L118.673 126.147L69.4403 175.379L94.0566 199.996L143.289 150.763Z" fill="#CBBBA0"/>
<path d="M119.705 125.114L95.0889 149.73L144.321 198.963L168.938 174.347L119.705 125.114Z" fill="#CBBBA0"/>
<path d="M145.497 50.0894L120.881 25.4731L45.8604 100.494L70.4767 125.11L145.497 50.0894Z" fill="#CBBBA0"/>
<path d="M194.731 99.3204L170.114 74.7041L95.0938 149.725L119.71 174.341L194.731 99.3204Z" fill="#A48A7B"/>
<path d="M120.879 25.4776L96.2627 50.0939L145.495 99.3264L170.112 74.7102L120.879 25.4776Z" fill="#CBBBA0"/>
<path d="M95.0899 100.498L70.4736 125.114L119.706 174.346L144.322 149.73L95.0899 100.498Z" fill="#A48A7B"/>
<path d="M14.054 220.293H0.832031V279.538H39.311V267.757H14.054V220.293Z" fill="#A48A7B"/>
<path d="M75.0787 218.937C66.3197 218.937 58.9457 221.861 52.9567 227.709C46.9667 233.557 43.9727 240.833 43.9727 249.534C43.9727 258.236 46.9667 265.511 52.9567 271.359C58.9457 277.207 66.3187 280.131 75.0787 280.131C83.8367 280.131 91.2097 277.207 97.2007 271.359C103.19 265.511 106.185 258.237 106.185 249.534C106.185 240.833 103.19 233.557 97.2007 227.709C91.2097 221.861 83.8367 218.937 75.0787 218.937ZM87.6227 263.053C84.2327 266.754 80.0647 268.605 75.1207 268.605C70.1757 268.605 66.0097 266.755 62.6187 263.053C59.2287 259.353 57.5337 254.861 57.5337 249.576C57.5337 244.294 59.2287 239.786 62.6187 236.058C66.0087 232.329 70.1757 230.464 75.1207 230.464C80.0647 230.464 84.2317 232.329 87.6227 236.058C91.0127 239.787 92.7087 244.294 92.7087 249.576C92.7077 254.861 91.0127 259.353 87.6227 263.053Z" fill="#A48A7B"/>
<path d="M230.777 227.71C224.787 221.862 217.413 218.938 208.655 218.938C199.896 218.938 192.522 221.862 186.533 227.71C180.543 233.558 177.549 240.834 177.549 249.535C177.549 258.237 180.543 265.512 186.533 271.36C192.522 277.208 199.895 280.132 208.655 280.132C217.413 280.132 224.787 277.208 230.777 271.36C236.766 265.512 239.761 258.238 239.761 249.535C239.761 240.834 236.765 233.558 230.777 227.71ZM221.199 263.053C217.809 266.754 213.641 268.605 208.697 268.605C203.752 268.605 199.586 266.755 196.195 263.053C192.805 259.353 191.11 254.861 191.11 249.576C191.11 244.294 192.805 239.786 196.195 236.058C199.585 232.329 203.752 230.464 208.697 230.464C213.641 230.464 217.808 232.329 221.199 236.058C224.589 239.787 226.285 244.294 226.285 249.576C226.285 254.861 224.589 259.353 221.199 263.053Z" fill="#A48A7B"/>
<path d="M144.319 249.365V258.004H155.851V265.638C152.8 267.39 148.986 268.266 144.409 268.266C139.832 268.266 135.891 266.585 132.585 263.223C129.279 259.862 127.627 255.383 127.627 249.789C127.627 244.195 129.35 239.69 132.797 236.271C136.243 232.853 140.481 231.143 145.51 231.143C148.108 231.143 150.524 231.581 152.757 232.457C154.989 233.334 157.432 234.93 160.088 237.246L166.953 227.33C160.681 221.736 153.293 218.939 144.789 218.939C136.284 218.939 129.024 221.878 123.006 227.754C116.989 233.632 113.98 240.963 113.98 249.748C113.98 258.535 116.932 265.809 122.837 271.573C128.741 277.337 136.044 280.219 144.747 280.219C155.143 280.219 163.28 276.942 169.157 270.387V258.006V249.367H155.85H144.319V249.365Z" fill="#A48A7B"/>
<path d="M59.2066 311.519C57.0736 311.519 55.4186 310.931 54.2416 309.754C53.0656 308.578 52.4766 306.918 52.4766 304.773C52.4766 302.574 52.8836 300.545 53.6976 298.687C54.5106 296.829 55.6356 295.38 57.0706 294.341C58.5056 293.302 60.1186 292.782 61.9116 292.782C63.4176 292.782 64.8906 293.062 66.3316 293.623L65.5566 295.948C64.2376 295.387 63.0336 295.107 61.9446 295.107C60.7126 295.107 59.5886 295.527 58.5716 296.369C57.5546 297.21 56.7576 298.381 56.1796 299.882C55.6026 301.383 55.3136 303.013 55.3136 304.772C55.3136 306.18 55.6786 307.274 56.4106 308.054C57.1416 308.835 58.1506 309.225 59.4366 309.225C60.2286 309.225 60.9766 309.116 61.6796 308.895C62.3836 308.675 63.0756 308.416 63.7576 308.12V310.479C62.3946 311.172 60.8766 311.519 59.2066 311.519Z" fill="#CBBBA0"/>
<path d="M76.6716 292.881C78.7606 292.881 80.4096 293.499 81.6196 294.736C82.8286 295.973 83.4336 297.674 83.4336 299.84C83.4336 301.907 83.0376 303.859 82.2456 305.695C81.4536 307.531 80.3816 308.95 79.0296 309.95C77.6776 310.95 76.1486 311.45 74.4446 311.45C72.3336 311.45 70.6786 310.829 69.4806 309.587C68.2816 308.344 67.6826 306.646 67.6826 304.49C67.6826 302.401 68.0836 300.436 68.8866 298.594C69.6896 296.752 70.7726 295.339 72.1356 294.355C73.4986 293.371 75.0116 292.881 76.6716 292.881ZM80.5646 299.462C80.5646 298.198 80.2206 297.172 79.5336 296.386C78.8456 295.6 77.9146 295.207 76.7376 295.207C75.5396 295.207 74.4646 295.614 73.5136 296.428C72.5626 297.242 71.8256 298.371 71.3036 299.817C70.7816 301.263 70.5206 302.871 70.5206 304.641C70.5206 306.081 70.8696 307.195 71.5676 307.981C72.2656 308.767 73.2686 309.16 74.5776 309.16C75.7216 309.16 76.7486 308.759 77.6616 307.956C78.5746 307.153 79.2866 306.013 79.7976 304.534C80.3086 303.055 80.5646 301.364 80.5646 299.462Z" fill="#CBBBA0"/>
<path d="M96.4962 311.189L98.9372 299.776C99.1352 298.742 99.2342 298 99.2342 297.549C99.2342 296.779 99.0642 296.18 98.7232 295.751C98.3822 295.322 97.8003 295.108 96.9753 295.108C96.0513 295.108 95.1522 295.438 94.2782 296.097C93.4042 296.756 92.6342 297.7 91.9692 298.926C91.3042 300.152 90.7902 301.628 90.4272 303.355L88.7612 311.189H85.9902L89.8492 293.113H92.1412L91.7782 296.461H91.9432C92.9002 295.153 93.8532 294.213 94.8042 293.641C95.7552 293.07 96.7362 292.784 97.7482 292.784C98.9912 292.784 99.9472 293.141 100.618 293.856C101.288 294.571 101.684 295.565 101.806 296.841H101.938C102.883 295.467 103.89 294.447 104.956 293.782C106.022 293.116 107.1 292.784 108.189 292.784C109.585 292.784 110.666 293.158 111.43 293.906C112.194 294.654 112.576 295.742 112.576 297.172C112.576 297.92 112.455 298.898 112.213 300.108L109.838 311.191H107.034L109.475 299.778C109.695 298.634 109.805 297.832 109.805 297.37C109.805 296.688 109.616 296.141 109.236 295.729C108.857 295.317 108.26 295.111 107.446 295.111C106.555 295.111 105.675 295.43 104.807 296.068C103.939 296.706 103.177 297.61 102.523 298.781C101.869 299.952 101.371 301.341 101.03 302.946L99.2652 311.193H96.4962V311.189Z" fill="#CBBBA0"/>
<path d="M123.463 311.519C122.396 311.519 121.461 311.244 120.659 310.694C119.856 310.144 119.235 309.374 118.795 308.385H118.63L118.564 309.011C118.531 309.286 118.473 309.671 118.391 310.166C118.308 310.661 117.679 313.706 116.503 319.303H113.765L119.307 293.112H121.599L121.171 296.559H121.302C123.271 294.063 125.316 292.815 127.438 292.815C128.944 292.815 130.131 293.351 131.001 294.423C131.869 295.495 132.304 296.999 132.304 298.934C132.304 301.265 131.925 303.404 131.166 305.35C130.407 307.296 129.357 308.811 128.016 309.893C126.673 310.977 125.156 311.519 123.463 311.519ZM126.531 295.108C125.475 295.108 124.4 295.63 123.306 296.675C122.212 297.719 121.343 299.033 120.701 300.616C120.058 302.199 119.736 303.822 119.736 305.482C119.736 306.691 120.041 307.618 120.652 308.261C121.262 308.905 122.145 309.226 123.299 309.226C124.387 309.226 125.402 308.781 126.342 307.89C127.281 306.999 128.037 305.732 128.61 304.089C129.181 302.445 129.467 300.699 129.467 298.852C129.466 296.356 128.488 295.108 126.531 295.108Z" fill="#CBBBA0"/>
<path d="M144.508 292.782C145.52 292.782 146.421 293.054 147.213 293.598C148.004 294.142 148.62 294.926 149.06 295.948H149.242L150.346 293.112H152.441L148.598 311.188H146.405L146.834 307.741H146.702C144.733 310.259 142.661 311.518 140.484 311.518C138.956 311.518 137.756 310.974 136.888 309.885C136.02 308.796 135.585 307.306 135.585 305.415C135.585 303.128 135.975 301.006 136.756 299.049C137.536 297.092 138.614 295.558 139.988 294.447C141.364 293.337 142.87 292.782 144.508 292.782ZM141.375 309.226C142.441 309.226 143.503 308.718 144.558 307.701C145.614 306.684 146.472 305.359 147.131 303.726C147.791 302.093 148.12 300.457 148.12 298.819C148.12 297.687 147.812 296.785 147.197 296.114C146.581 295.444 145.772 295.108 144.772 295.108C143.628 295.108 142.565 295.581 141.581 296.526C140.597 297.471 139.824 298.753 139.264 300.369C138.704 301.985 138.423 303.69 138.423 305.482C138.423 306.735 138.681 307.673 139.198 308.294C139.714 308.915 140.44 309.226 141.375 309.226Z" fill="#CBBBA0"/>
<path d="M165.074 311.189L167.515 299.776C167.735 298.632 167.845 297.841 167.845 297.401C167.845 296.708 167.65 296.153 167.259 295.735C166.868 295.318 166.244 295.109 165.387 295.109C164.408 295.109 163.454 295.439 162.526 296.098C161.596 296.758 160.778 297.698 160.068 298.918C159.359 300.139 158.823 301.618 158.461 303.355L156.795 311.189H154.024L157.883 293.113H160.175L159.813 296.461H159.978C161.033 295.12 162.053 294.171 163.037 293.616C164.021 293.061 165.041 292.783 166.097 292.783C167.493 292.783 168.596 293.165 169.405 293.929C170.213 294.693 170.617 295.762 170.617 297.137C170.617 298.006 170.49 298.995 170.237 300.106L167.879 311.189H165.074Z" fill="#CBBBA0"/>
<path d="M174.163 293.112H176.934L178.155 302.1C178.264 302.859 178.372 303.978 178.476 305.456C178.58 306.935 178.633 308.125 178.633 309.027H178.732C179.117 308.07 179.595 306.971 180.167 305.729C180.739 304.486 181.162 303.629 181.438 303.156L186.798 293.112H189.734L178.255 314.256C177.233 316.147 176.221 317.461 175.221 318.198C174.22 318.934 173.016 319.303 171.609 319.303C170.817 319.303 170.047 319.187 169.3 318.956V316.729C169.992 316.927 170.713 317.026 171.46 317.026C172.361 317.026 173.134 316.748 173.777 316.193C174.421 315.637 175.045 314.816 175.649 313.727L176.902 311.484L174.163 293.112Z" fill="#CBBBA0"/>
</svg>
